<?xml version="1.0" standalone="no"?>
<svg xmlns:xlink="http://www.w3.org/1999/xlink" id="wave" style="transform:rotate(180deg); transition: 0.3s" viewBox="0 0 1440 120" version="1.1" xmlns="http://www.w3.org/2000/svg"><defs><linearGradient id="sw-gradient-0" x1="0" x2="0" y1="1" y2="0"><stop stop-color="rgba(82.946, 150.588, 86.43, 0.8980392156862745)" offset="0%"/><stop stop-color="rgba(40.136, 146.034, 10.357, 1)" offset="100%"/></linearGradient></defs><path style="transform:translate(0, 0px); opacity:1" fill="url(#sw-gradient-0)" d="M0,0L10,2C20,4,40,8,60,18C80,28,100,44,120,42C140,40,160,20,180,18C200,16,220,32,240,50C260,68,280,88,300,96C320,104,340,100,360,94C380,88,400,80,420,68C440,56,460,40,480,44C500,48,520,72,540,68C560,64,580,32,600,30C620,28,640,56,660,58C680,60,700,36,720,34C740,32,760,52,780,68C800,84,820,96,840,96C860,96,880,84,900,76C920,68,940,64,960,60C980,56,1000,52,1020,44C1040,36,1060,24,1080,18C1100,12,1120,12,1140,12C1160,12,1180,12,1200,16C1220,20,1240,28,1260,42C1280,56,1300,76,1320,70C1340,64,1360,32,1380,18C1400,4,1420,8,1430,10L1440,12L1440,120L1430,120C1420,120,1400,120,1380,120C1360,120,1340,120,1320,120C1300,120,1280,120,1260,120C1240,120,1220,120,1200,120C1180,120,1160,120,1140,120C1120,120,1100,120,1080,120C1060,120,1040,120,1020,120C1000,120,980,120,960,120C940,120,920,120,900,120C880,120,860,120,840,120C820,120,800,120,780,120C760,120,740,120,720,120C700,120,680,120,660,120C640,120,620,120,600,120C580,120,560,120,540,120C520,120,500,120,480,120C460,120,440,120,420,120C400,120,380,120,360,120C340,120,320,120,300,120C280,120,260,120,240,120C220,120,200,120,180,120C160,120,140,120,120,120C100,120,80,120,60,120C40,120,20,120,10,120L0,120Z"/></svg>